<svg width="106" height="14" viewBox="0 0 106 14" fill="none" xmlns="http://www.w3.org/2000/svg">
<path d="M105.401 9.1367C105.401 10.3134 105.008 11.2939 104.224 12.0783C103.439 12.8628 102.464 13.255 101.297 13.255H88.382V9.83982H101.268C101.756 9.83982 102 9.60545 102 9.1367C102 8.66795 101.756 8.43357 101.268 8.43357H91.5963C90.4388 8.43357 89.463 8.04135 88.669 7.25692C87.875 6.47248 87.478 5.48236 87.478 4.28657C87.478 3.10991 87.875 2.13415 88.669 1.35928C89.463 0.574837 90.4388 0.182617 91.5963 0.182617H104.525V3.58345H91.625C91.1371 3.58345 90.8932 3.81782 90.8932 4.28657C90.8932 4.78402 91.1371 5.03274 91.625 5.03274H101.297C102.464 5.03274 103.439 5.42496 104.224 6.2094C105.008 6.98428 105.401 7.96004 105.401 9.1367Z" fill="white"/>
<path d="M85.6271 13.255H82.2263V10.0551H71.1198V13.255H67.7046V5.90806C67.7046 4.00436 68.6373 2.52637 70.5027 1.47407C72.0429 0.613102 73.8318 0.182617 75.8694 0.182617H77.4909C79.5668 0.182617 81.3605 0.613102 82.872 1.47407C84.7087 2.50723 85.6271 3.98523 85.6271 5.90806V13.255ZM82.2263 6.61119V5.90806C82.2263 5.10449 81.6092 4.48746 80.3752 4.05698C79.4664 3.74129 78.505 3.58345 77.4909 3.58345H75.8694C73.9944 3.58345 72.6552 3.94697 71.8516 4.67401C71.402 5.06623 71.158 5.48715 71.1198 5.93676C71.1198 5.93676 71.1198 6.16157 71.1198 6.61119H82.2263Z" fill="white"/>
<path d="M66.5709 6.72598C66.5709 8.61055 65.9539 10.1699 64.7199 11.4039C63.4858 12.638 61.9313 13.255 60.0563 13.255H48.6484C48.6484 8.90232 48.6484 6.72598 48.6484 6.72598C48.6484 6.72598 48.6484 4.54486 48.6484 0.182617H60.0563C61.9313 0.182617 63.4858 0.799645 64.7199 2.0337C65.9539 3.26776 66.5709 4.83185 66.5709 6.72598ZM63.1701 6.72598C63.1701 5.76935 62.8831 5.01361 62.3092 4.45877C61.7447 3.89435 60.9842 3.60258 60.0276 3.58345H52.0636V9.83982H60.0276C60.9842 9.82069 61.7447 9.53848 62.3092 8.9932C62.8831 8.44792 63.1701 7.69218 63.1701 6.72598Z" fill="white"/>
<path d="M46.2809 13.3417H43.9276L31.7736 5.03334V13.2843H28.3584V0.211914H30.7404L42.8801 8.31938V0.211914H46.2809V13.3417Z" fill="white"/>
<path d="M26.005 13.2837H22.5898V0.182617H26.005V13.2837Z" fill="white"/>
<path d="M20.9538 0.182617L11.7271 13.2837H9.84733L0.620605 0.182617H4.82501L10.7944 8.57707L16.7494 0.182617H20.9538Z" fill="white"/>
</svg>
