<svg width="20" height="20" viewBox="0 0 20 20" fill="none" xmlns="http://www.w3.org/2000/svg">
<path d="M16.3337 17.5001H3.66699C2.58366 17.5001 1.66699 16.5834 1.66699 15.5001V11.6667H3.33366V15.1667C3.33366 15.6667 3.66699 15.8334 4.16699 15.8334H15.8337C16.3337 15.8334 16.667 15.5001 16.667 15.0001V11.6667H18.3337V15.5001C18.3337 16.5834 17.417 17.5001 16.3337 17.5001Z" fill="white"/>
<path d="M12.7497 10.0833L11.1663 11.6667V8.33333C11.1663 6.66667 11.1663 4.25 13.1663 2.5C10.333 3 8.91634 5.16667 8.83301 8.33333V11.6667L7.24967 10.0833L5.83301 10.8333L9.99967 15L14.1663 10.8333L12.7497 10.0833Z" fill="white"/>
</svg>
