<svg width="20" height="20" viewBox="0 0 20 20" fill="none" xmlns="http://www.w3.org/2000/svg">
<path d="M16.3337 17.5001H3.66699C2.58366 17.5001 1.66699 16.5834 1.66699 15.5001V11.6667H3.33366V15.1667C3.33366 15.6667 3.66699 15.8334 4.16699 15.8334H15.8337C16.3337 15.8334 16.667 15.5001 16.667 15.0001V11.6667H18.3337V15.5001C18.3337 16.5834 17.417 17.5001 16.3337 17.5001Z" fill="white"/>
<path d="M7.25033 7.41667L8.83366 5.83333V9.16667C8.83366 10.8333 8.83366 13.25 6.83366 15C9.66699 14.5 11.0837 12.3333 11.167 9.16667V5.83333L12.7503 7.41667L14.167 6.66667L10.0003 2.5L5.83366 6.66667L7.25033 7.41667Z" fill="white"/>
</svg>
